<svg xmlns="http://www.w3.org/2000/svg" width="32.159" height="32.159" viewBox="0 0 32.159 32.159">
  <path id="dribble" d="M16.079,0A16.079,16.079,0,1,0,32.159,16.079,16.114,16.114,0,0,0,16.079,0ZM26.986,7a14.128,14.128,0,0,1,3.286,8.849,20.144,20.144,0,0,0-8.156-.109q-1.111.2-2.217.513-.367-1-.781-1.982-.423-1-.891-1.971C21.616,11.009,25.29,9.08,26.986,7ZM16.079,1.884a14.141,14.141,0,0,1,9.591,3.74c-.986,1.345-3.8,3.3-8.3,4.991a40.952,40.952,0,0,0-5.642-8.046A14.133,14.133,0,0,1,16.079,1.884ZM9.858,3.323a39.215,39.215,0,0,1,5.713,7.917A33.753,33.753,0,0,1,2.227,12.977,14.248,14.248,0,0,1,9.858,3.323ZM1.884,16.079c0-.417.019-.83.055-1.237a25.625,25.625,0,0,0,2.69.137A38.423,38.423,0,0,0,16.45,12.936a41.44,41.44,0,0,1,1.661,3.892,26.341,26.341,0,0,0-4.55,2.144c-3.531,2.1-6.115,4.807-7.186,7.456A14.158,14.158,0,0,1,1.884,16.079Zm14.2,14.2A14.115,14.115,0,0,1,7.923,27.69c.716-2.419,3.138-5.037,6.6-7.1a24.309,24.309,0,0,1,4.2-1.97A44.147,44.147,0,0,1,20.715,29.5,14.13,14.13,0,0,1,16.079,30.274Zm6.474-1.564a45.6,45.6,0,0,0-2.038-10.655,18.867,18.867,0,0,1,9.658-.286A14.229,14.229,0,0,1,22.553,28.71Z" fill="#fff"/>
</svg>
