<svg xmlns="http://www.w3.org/2000/svg" width="15.807" height="29.237" viewBox="0 0 15.807 29.237">
  <g id="facebook-logo" transform="translate(-22.077)">
    <path id="Path_16" data-name="Path 16" d="M37.289.006,33.5,0c-4.259,0-7.012,2.824-7.012,7.2v3.318H22.673a.6.6,0,0,0-.6.6v4.807a.6.6,0,0,0,.6.6h3.812V28.641a.6.6,0,0,0,.6.6h4.974a.6.6,0,0,0,.6-.6V16.512h4.457a.6.6,0,0,0,.6-.6l0-4.807a.6.6,0,0,0-.6-.6H32.651V7.7c0-1.352.322-2.038,2.083-2.038h2.554a.6.6,0,0,0,.6-.6V.6A.6.6,0,0,0,37.289.006Z" fill="#fff"/>
  </g>
</svg>
