<svg xmlns="http://www.w3.org/2000/svg" width="31.751" height="30.975" viewBox="0 0 31.751 30.975">
  <g id="github-logo" transform="translate(0 -5.365)">
    <path id="Path_2" data-name="Path 2" d="M29.622,13.272a15.807,15.807,0,0,0-5.778-5.778,15.528,15.528,0,0,0-7.969-2.129A15.53,15.53,0,0,0,7.907,7.494a15.8,15.8,0,0,0-5.778,5.778A15.529,15.529,0,0,0,0,21.24a15.429,15.429,0,0,0,3.028,9.333,15.548,15.548,0,0,0,7.824,5.736.925.925,0,0,0,.827-.145.808.808,0,0,0,.269-.62q0-.062-.01-1.116t-.01-1.839l-.475.082a6.065,6.065,0,0,1-1.147.072A8.742,8.742,0,0,1,8.868,32.6a3.21,3.21,0,0,1-1.385-.62,2.623,2.623,0,0,1-.909-1.271l-.207-.476a5.165,5.165,0,0,0-.651-1.054,2.494,2.494,0,0,0-.9-.785l-.145-.1a1.517,1.517,0,0,1-.269-.248,1.134,1.134,0,0,1-.186-.289q-.062-.145.1-.238a1.341,1.341,0,0,1,.6-.092l.413.062a3.017,3.017,0,0,1,1.023.5,3.336,3.336,0,0,1,1,1.075,3.644,3.644,0,0,0,1.147,1.292,2.434,2.434,0,0,0,1.354.444,5.879,5.879,0,0,0,1.178-.1,4.112,4.112,0,0,0,.93-.31,3.349,3.349,0,0,1,1.013-2.129,14.155,14.155,0,0,1-2.119-.372,8.436,8.436,0,0,1-1.943-.807,5.565,5.565,0,0,1-1.664-1.385A6.656,6.656,0,0,1,6.17,23.514a10.321,10.321,0,0,1-.424-3.1A6.029,6.029,0,0,1,7.38,16.154a5.557,5.557,0,0,1,.145-4.217,2.9,2.9,0,0,1,1.778.279,12.429,12.429,0,0,1,1.726.8q.548.33.879.558a14.929,14.929,0,0,1,7.938,0l.785-.5a11.125,11.125,0,0,1,1.9-.91,2.709,2.709,0,0,1,1.675-.227,5.5,5.5,0,0,1,.165,4.217A6.03,6.03,0,0,1,26,20.413a10.437,10.437,0,0,1-.424,3.111,6.4,6.4,0,0,1-1.1,2.171,5.779,5.779,0,0,1-1.675,1.375,8.452,8.452,0,0,1-1.943.806,14.141,14.141,0,0,1-2.119.373,3.682,3.682,0,0,1,1.075,2.935v4.361a.823.823,0,0,0,.259.62.9.9,0,0,0,.816.144,15.546,15.546,0,0,0,7.824-5.736,15.432,15.432,0,0,0,3.028-9.333A15.542,15.542,0,0,0,29.622,13.272Z" transform="translate(0 0)" fill="#fff"/>
  </g>
</svg>
