<svg xmlns="http://www.w3.org/2000/svg" width="31.297" height="31.303" viewBox="0 0 31.297 31.303">
  <g id="instagram" transform="translate(-0.449 0)">
    <path id="Path_17" data-name="Path 17" d="M31.666,9.2a11.438,11.438,0,0,0-.728-3.8,8.019,8.019,0,0,0-4.58-4.58A11.468,11.468,0,0,0,22.561.1C20.885.018,20.353,0,16.1,0S11.321.018,9.652.092a11.442,11.442,0,0,0-3.8.728A7.638,7.638,0,0,0,3.078,2.63a7.707,7.707,0,0,0-1.8,2.77A11.469,11.469,0,0,0,.546,9.2c-.08,1.676-.1,2.208-.1,6.458s.018,4.782.092,6.451a11.438,11.438,0,0,0,.728,3.8,8.017,8.017,0,0,0,4.58,4.58,11.469,11.469,0,0,0,3.8.728c1.669.074,2.2.092,6.451.092s4.782-.018,6.451-.092a11.435,11.435,0,0,0,3.8-.728,8.007,8.007,0,0,0,4.58-4.58,11.477,11.477,0,0,0,.728-3.8c.073-1.669.092-2.2.092-6.451s-.006-4.782-.08-6.451ZM28.847,21.984a8.58,8.58,0,0,1-.538,2.9,5.193,5.193,0,0,1-2.972,2.972,8.61,8.61,0,0,1-2.9.538c-1.651.074-2.146.092-6.323.092s-4.678-.018-6.323-.092a8.576,8.576,0,0,1-2.9-.538,4.817,4.817,0,0,1-1.8-1.168,4.867,4.867,0,0,1-1.168-1.8,8.612,8.612,0,0,1-.538-2.9c-.074-1.651-.092-2.147-.092-6.323s.018-4.678.092-6.323a8.576,8.576,0,0,1,.538-2.9,4.758,4.758,0,0,1,1.174-1.8,4.859,4.859,0,0,1,1.8-1.168,8.616,8.616,0,0,1,2.9-.538c1.651-.073,2.147-.092,6.323-.092s4.678.018,6.323.092a8.58,8.58,0,0,1,2.9.538,4.813,4.813,0,0,1,1.8,1.168,4.866,4.866,0,0,1,1.168,1.8,8.615,8.615,0,0,1,.538,2.9c.073,1.651.092,2.146.092,6.323s-.018,4.666-.092,6.317Zm0,0" fill="#fff"/>
    <path id="Path_18" data-name="Path 18" d="M132.99,124.5a8.041,8.041,0,1,0,8.041,8.041A8.043,8.043,0,0,0,132.99,124.5Zm0,13.258a5.216,5.216,0,1,1,5.216-5.216A5.217,5.217,0,0,1,132.99,137.758Zm0,0" transform="translate(-116.887 -116.887)" fill="#fff"/>
    <path id="Path_19" data-name="Path 19" d="M366.2,90.479a1.877,1.877,0,1,1-1.878-1.877A1.877,1.877,0,0,1,366.2,90.479Zm0,0" transform="translate(-339.864 -83.184)" fill="#fff"/>
  </g>
</svg>
