<svg xmlns="http://www.w3.org/2000/svg" width="30.636" height="29.28" viewBox="0 0 30.636 29.28">
  <g id="linkedin-letters" transform="translate(0 -9.708)">
    <g id="Group_3" data-name="Group 3" transform="translate(0 9.708)">
      <rect id="Rectangle_6" data-name="Rectangle 6" width="6.582" height="19.766" transform="translate(0.379 9.514)" fill="#fff"/>
      <path id="Path_20" data-name="Path 20" d="M169.568,141.6a7.084,7.084,0,0,0-5.485-2.264,7.9,7.9,0,0,0-2.284.309,5.182,5.182,0,0,0-1.735.868,7.43,7.43,0,0,0-1.9,2.092v-2.811H151.6l.02.957q.02.958.02,5.9t-.04,12.9h6.562v-11.03a4.817,4.817,0,0,1,.219-1.616,4.236,4.236,0,0,1,1.267-1.705,3.229,3.229,0,0,1,2.1-.688,2.838,2.838,0,0,1,2.523,1.187,5.771,5.771,0,0,1,.808,3.281v10.571h6.562V148.226Q171.642,143.858,169.568,141.6Z" transform="translate(-141.006 -130.276)" fill="#fff"/>
      <path id="Path_21" data-name="Path 21" d="M3.71,9.708a3.755,3.755,0,0,0-2.683.967A3.212,3.212,0,0,0,0,13.119a3.268,3.268,0,0,0,1,2.433,3.6,3.6,0,0,0,2.633.977h.04a3.758,3.758,0,0,0,2.7-.977A3.157,3.157,0,0,0,7.38,13.119a3.327,3.327,0,0,0-1.017-2.443A3.647,3.647,0,0,0,3.71,9.708Z" transform="translate(0 -9.708)" fill="#fff"/>
    </g>
  </g>
</svg>
