<svg xmlns="http://www.w3.org/2000/svg" xmlns:xlink="http://www.w3.org/1999/xlink" width="852.486" height="672" viewBox="0 0 852.486 672">
  <defs>
    <filter id="Path_5" x="101.5" y="0" width="702" height="672" filterUnits="userSpaceOnUse">
      <feOffset dx="4" dy="7" input="SourceAlpha"/>
      <feGaussianBlur stdDeviation="4.5" result="blur"/>
      <feFlood flood-color="#29292b" flood-opacity="0.259"/>
      <feComposite operator="in" in2="blur"/>
      <feComposite in="SourceGraphic"/>
    </filter>
    <filter id="Path_6" x="587" y="415.5" width="265.486" height="256.086" filterUnits="userSpaceOnUse">
      <feOffset dx="4" dy="7" input="SourceAlpha"/>
      <feGaussianBlur stdDeviation="9" result="blur-2"/>
      <feFlood flood-color="#29292b" flood-opacity="0.259"/>
      <feComposite operator="in" in2="blur-2"/>
      <feComposite in="SourceGraphic"/>
    </filter>
    <filter id="Path_7" x="0" y="136.5" width="271.48" height="259.947" filterUnits="userSpaceOnUse">
      <feOffset dx="1" dy="4" input="SourceAlpha"/>
      <feGaussianBlur stdDeviation="2" result="blur-3"/>
      <feFlood flood-color="#39393e" flood-opacity="0.259"/>
      <feComposite operator="in" in2="blur-3"/>
      <feComposite in="SourceGraphic"/>
    </filter>
    <filter id="Path_13" x="610" y="45.5" width="149.896" height="146.479" filterUnits="userSpaceOnUse">
      <feOffset dx="4" dy="7" input="SourceAlpha"/>
      <feGaussianBlur stdDeviation="0.5" result="blur-4"/>
      <feFlood flood-color="#29292b" flood-opacity="0.259"/>
      <feComposite operator="in" in2="blur-4"/>
      <feComposite in="SourceGraphic"/>
    </filter>
  </defs>
  <g id="Group_5" data-name="Group 5" transform="translate(-945 -267.5)">
    <g transform="matrix(1, 0, 0, 1, 945, 267.5)" filter="url(#Path_5)">
      <path id="Path_5-2" data-name="Path 5" d="M337.5,0C523.9,0,675,144.388,675,322.5S523.9,645,337.5,645,0,500.612,0,322.5,151.1,0,337.5,0Z" transform="translate(111 6.5)" fill="#252527"/>
    </g>
    <g transform="matrix(1, 0, 0, 1, 945, 267.5)" filter="url(#Path_6)">
      <path id="Path_6-2" data-name="Path 6" d="M105.743,0c58.4,0,105.743,45.239,105.743,101.043S164.143,202.086,105.743,202.086,0,156.848,0,101.043,47.343,0,105.743,0Z" transform="translate(610 435.5)" fill="#2b2b2e"/>
    </g>
    <g transform="matrix(1, 0, 0, 1, 945, 267.5)" filter="url(#Path_7)">
      <path id="Path_7-2" data-name="Path 7" d="M129.74,0c71.653,0,129.74,55.5,129.74,123.974S201.393,247.947,129.74,247.947,0,192.442,0,123.974,58.086,0,129.74,0Z" transform="translate(5 138.5)" fill="#2d2d30"/>
    </g>
    <g id="python" transform="translate(1622 765)">
      <path id="Path_8" data-name="Path 8" d="M17.535,44.745a8.323,8.323,0,0,1,8.314-8.314h25.7a3.783,3.783,0,0,0,3.779-3.779V11.337A11.35,11.35,0,0,0,43.989,0H33.407A11.35,11.35,0,0,0,22.07,11.337v6.2H38.7a2.267,2.267,0,1,1,0,4.535H11.337A11.35,11.35,0,0,0,0,33.407V43.989A11.35,11.35,0,0,0,11.337,55.326h6.2ZM33.407,11.489a2.267,2.267,0,1,1,2.267-2.267A2.267,2.267,0,0,1,33.407,11.489Zm0,0" fill="#0080ff"/>
      <path id="Path_9" data-name="Path 9" d="M189.989,146h-6.2v10.582a8.323,8.323,0,0,1-8.314,8.314h-25.7A3.783,3.783,0,0,0,146,168.675v21.314a11.35,11.35,0,0,0,11.337,11.337h10.582a11.35,11.35,0,0,0,11.337-11.337v-6.2H162.628a2.267,2.267,0,0,1,0-4.535h27.361a11.35,11.35,0,0,0,11.337-11.337V157.337A11.35,11.35,0,0,0,189.989,146Zm-22.07,43.838a2.267,2.267,0,1,1-2.267,2.267A2.267,2.267,0,0,1,167.919,189.838Zm0,0" transform="translate(-123.93 -123.93)" fill="#0080ff"/>
    </g>
    <g id="molecular" transform="translate(1020 467.782)">
      <path id="Path_10" data-name="Path 10" d="M73.226,50.072V27.895a12.027,12.027,0,1,0-5.984,0V50.071A20.077,20.077,0,0,0,52.66,60.283L39.5,50.052a8.691,8.691,0,1,0-3.826,4.605L50.548,66.221a19.936,19.936,0,0,0,3.575,15.531L37.3,98.571a2.992,2.992,0,0,0,4.232,4.231l16.82-16.82a19.925,19.925,0,0,0,8.887,3.692V111.9a8.674,8.674,0,1,0,5.984,0V89.675a20.026,20.026,0,0,0,0-39.6Zm-41.9-.224a2.691,2.691,0,1,1,2.691-2.691A2.694,2.694,0,0,1,31.323,49.848Zm32.868-33.6a6.043,6.043,0,1,1,6.042,6.043A6.049,6.049,0,0,1,64.191,16.245Zm6.043,106.49a2.691,2.691,0,0,1-.541-5.327,2.869,2.869,0,0,0,1.082,0,2.691,2.691,0,0,1-.541,5.327Zm0-38.819A14.035,14.035,0,0,1,56.758,65.937c.02-.062.038-.123.053-.186A14.042,14.042,0,1,1,70.234,83.915Z" transform="translate(-13.614)" fill="#fff"/>
      <path id="Path_11" data-name="Path 11" d="M236.664,95.953a12.04,12.04,0,0,0-12.027,12.027c0,.309.016.614.039.917l-21.636,7.377a2.992,2.992,0,1,0,1.931,5.664l21.636-7.377a12.024,12.024,0,1,0,10.058-18.608Zm0,18.07a6.043,6.043,0,1,1,6.042-6.043A6.049,6.049,0,0,1,236.664,114.023Z" transform="translate(-120.825 -55.14)" fill="#fff"/>
      <path id="Path_12" data-name="Path 12" d="M12.027,250.44a12.027,12.027,0,1,0,12.026,12.027A12.04,12.04,0,0,0,12.027,250.44Zm0,18.07a6.043,6.043,0,1,1,6.042-6.043A6.049,6.049,0,0,1,12.027,268.51Z" transform="translate(0 -148)" fill="#fff"/>
    </g>
    <g transform="matrix(1, 0, 0, 1, 945, 267.5)" filter="url(#Path_13)">
      <path id="Path_13-2" data-name="Path 13" d="M72.2,0c39.874,0,72.2,30.888,72.2,68.989s-32.324,68.989-72.2,68.989S0,107.091,0,68.989,32.324,0,72.2,0Z" transform="translate(610 45.5)" fill="#2b2b2e"/>
    </g>
    <g id="cloud-computing" transform="translate(1597 351.723)">
      <g id="Group_2" data-name="Group 2" transform="translate(0 0.277)">
        <path id="Path_14" data-name="Path 14" d="M53.709,39.23a6.474,6.474,0,0,0-6.218,4.7h-6.24V37.05h6.371a12.551,12.551,0,0,0,3.646-24.56,14.347,14.347,0,0,0-13.9-10.858,14.192,14.192,0,0,0-7.184,1.923A12.556,12.556,0,0,0,9.18,12.409,12.551,12.551,0,0,0,12.55,37.05h6.371v6.882h-6.24a6.464,6.464,0,1,0,0,3.526h8a1.763,1.763,0,0,0,1.763-1.763V37.05h5.876V47.7a6.464,6.464,0,1,0,3.526,0V37.05h5.876v8.645a1.763,1.763,0,0,0,1.763,1.763h8a6.463,6.463,0,1,0,6.218-8.227Zm-47.245,9.4A2.938,2.938,0,1,1,9.4,45.694,2.941,2.941,0,0,1,6.464,48.632Zm26.561,5.289a2.938,2.938,0,1,1-2.938-2.938A2.941,2.941,0,0,1,33.025,53.921ZM12.55,33.524A9.025,9.025,0,0,1,11.237,15.57a1.763,1.763,0,0,0,1.5-1.907c-.026-.275-.038-.557-.038-.836A9.027,9.027,0,0,1,28.592,6.969a1.763,1.763,0,0,0,2.391.276,10.667,10.667,0,0,1,6.388-2.089,10.818,10.818,0,0,1,10.656,9.053,1.763,1.763,0,0,0,1.39,1.444,9.025,9.025,0,0,1-1.794,17.87H12.55ZM53.709,48.632a2.938,2.938,0,1,1,2.938-2.938A2.941,2.941,0,0,1,53.709,48.632Z" transform="translate(0 -0.277)" fill="#fff"/>
      </g>
    </g>
  </g>
</svg>
