<svg xmlns="http://www.w3.org/2000/svg" width="24.945" height="24.335" viewBox="0 0 24.945 24.335">
  <g id="github-logo" transform="translate(0 -5.365)">
    <path id="Path_2" data-name="Path 2" d="M23.272,11.577a12.418,12.418,0,0,0-4.539-4.539,12.2,12.2,0,0,0-6.261-1.673A12.2,12.2,0,0,0,6.212,7.038a12.417,12.417,0,0,0-4.539,4.539A12.2,12.2,0,0,0,0,17.837a12.121,12.121,0,0,0,2.379,7.332,12.215,12.215,0,0,0,6.147,4.507.727.727,0,0,0,.65-.114.635.635,0,0,0,.211-.487q0-.049-.008-.877T9.37,26.753L9,26.818a4.765,4.765,0,0,1-.9.057,6.867,6.867,0,0,1-1.129-.114,2.522,2.522,0,0,1-1.088-.487,2.061,2.061,0,0,1-.714-1L5,24.9a4.058,4.058,0,0,0-.511-.828,1.96,1.96,0,0,0-.706-.617l-.114-.081a1.192,1.192,0,0,1-.211-.2.891.891,0,0,1-.146-.227q-.049-.114.081-.187a1.053,1.053,0,0,1,.471-.073l.325.049a2.371,2.371,0,0,1,.8.39,2.621,2.621,0,0,1,.788.844,2.863,2.863,0,0,0,.9,1.015,1.912,1.912,0,0,0,1.064.349,4.618,4.618,0,0,0,.926-.081,3.23,3.23,0,0,0,.731-.244,2.631,2.631,0,0,1,.8-1.673,11.12,11.12,0,0,1-1.665-.292,6.628,6.628,0,0,1-1.526-.634A4.372,4.372,0,0,1,5.7,21.328a5.229,5.229,0,0,1-.852-1.705,8.109,8.109,0,0,1-.333-2.436A4.737,4.737,0,0,1,5.8,13.842a4.366,4.366,0,0,1,.114-3.313,2.276,2.276,0,0,1,1.4.219,9.765,9.765,0,0,1,1.356.625q.431.259.69.438a11.729,11.729,0,0,1,6.237,0l.617-.39a8.74,8.74,0,0,1,1.494-.715,2.128,2.128,0,0,1,1.316-.178,4.324,4.324,0,0,1,.13,3.313,4.738,4.738,0,0,1,1.283,3.346,8.2,8.2,0,0,1-.333,2.444,5.026,5.026,0,0,1-.86,1.705,4.54,4.54,0,0,1-1.316,1.08,6.641,6.641,0,0,1-1.527.633,11.109,11.109,0,0,1-1.665.293,2.893,2.893,0,0,1,.844,2.306v3.426a.647.647,0,0,0,.2.487.705.705,0,0,0,.641.113,12.214,12.214,0,0,0,6.147-4.506,12.124,12.124,0,0,0,2.379-7.332A12.21,12.21,0,0,0,23.272,11.577Z" fill="#fff"/>
  </g>
</svg>
