<svg xmlns="http://www.w3.org/2000/svg" width="24.335" height="24.335" viewBox="0 0 24.335 24.335">
  <path id="linkedin" d="M12.167,0A12.167,12.167,0,1,0,24.335,12.167,12.169,12.169,0,0,0,12.167,0ZM8.632,18.394H5.668V9.479H8.632ZM7.15,8.261H7.131a1.544,1.544,0,1,1,.039-3.08,1.545,1.545,0,1,1-.02,3.08ZM19.317,18.394H16.354V13.624c0-1.2-.429-2.016-1.5-2.016a1.622,1.622,0,0,0-1.52,1.084,2.029,2.029,0,0,0-.1.723v4.979H10.272s.039-8.079,0-8.915h2.963v1.262a2.942,2.942,0,0,1,2.671-1.472c1.95,0,3.412,1.274,3.412,4.012Zm0,0" fill="#fff"/>
</svg>
